<svg height="1065pt" viewBox="-246 -33 1065 1065.0001" width="1065pt" xmlns="http://www.w3.org/2000/svg"><path d="m271.003906-2.019531c-157.929687 0-286.421875 128.492187-286.421875 286.421875 0 84.703125 44.03125 149.054687 95.011719 223.570312 72.230469 105.550782 162.101562 236.914063 162.101562 488.445313h58.617188c0-252.933594 89.984375-383.972657 162.285156-489.273438 50.882813-74.105469 94.835938-138.113281 94.835938-222.742187 0-157.929688-128.488282-286.421875-286.429688-286.421875zm0 414.625c-70.6875 0-128.195312-57.511719-128.195312-128.203125 0-70.6875 57.507812-128.195313 128.195312-128.195313 70.691406 0 128.207032 57.507813 128.207032 128.195313 0 70.691406-57.515626 128.203125-128.207032 128.203125zm0 0"/><path d="m271.003906 214.820312c-38.363281 0-69.578125 31.21875-69.578125 69.582032 0 38.378906 31.214844 69.589844 69.578125 69.589844 38.378906 0 69.589844-31.210938 69.589844-69.589844 0-38.363282-31.210938-69.582032-69.589844-69.582032zm0 0"/></svg>