<svg height="480pt" viewBox="0 -24 480.10137 480" width="480pt" xmlns="http://www.w3.org/2000/svg"><path d="m80.101562 256.050781c-26.511718 0-48 21.492188-48 48 0 26.507813 21.488282 48 48 48 26.507813 0 48-21.492187 48-48-.027343-26.5-21.5-47.972656-48-48zm0 80c-17.671874 0-32-14.328125-32-32s14.328126-32 32-32c17.671876 0 32 14.328125 32 32s-14.328124 32-32 32zm0 0"/><path d="m472.101562 336.050781h-32.121093c-2.488281-185.992187-91.160157-335.9999998-199.878907-335.9999998h-144c-44.785156-.04687495-83.652343 30.8789068-93.667968 74.5273438-10.019532 43.652344 11.476562 88.429687 51.804687 107.914063l-12.882812 51.621093c-33.253907 18.402344-48.972657 57.664063-37.605469 93.933594 11.371094 36.265625 46.691406 59.527344 84.5 55.648437 37.8125-3.875 67.671875-33.824218 71.445312-71.644531h128.40625v9.136719c-15.601562 4.027344-25.777343 19.03125-23.746093 35.015625s15.632812 27.96875 31.746093 27.96875c16.113282 0 29.714844-11.984375 31.746094-27.96875 2.027344-15.984375-8.144531-30.988281-23.746094-35.015625v-9.136719h32c4.417969 0 8-3.582031 8-8 0-110.28125-68.183593-200-152-200h-112c-3.671874 0-6.871093 2.5-7.761718 6.0625l-5.910156 23.640625c-11.632813-9.039062-18.402344-22.972656-18.328126-37.703125.027344-26.5 21.5-47.972656 48-48h144c81.015626 0 149.601563 131.078125 151.894532 288h-31.894532c-4.417968 0-8 3.582031-8 8v32c0 4.417969 3.582032 8 8 8h112c4.417969 0 8-3.582031 8-8v-32c0-4.417969-3.582031-8-8-8zm-392 32c-35.347656 0-64-28.652343-64-64 0-35.347656 28.652344-64 64-64 35.347657 0 64 28.652344 64 64-.039062 35.328125-28.671874 63.960938-64 64zm232-16c.039063 7.773438-5.515624 14.453125-13.167968 15.828125s-15.1875-2.949218-17.859375-10.25c-2.667969-7.300781.292969-15.464844 7.027343-19.355468v13.777343c0 4.417969 3.582032 8 8 8 4.417969 0 8-3.582031 8-8v-13.777343c4.933594 2.835937 7.984376 8.085937 8 13.777343zm-160-232v48h-40v-48zm-65.753906 0h9.753906v56c0 4.417969 3.582032 8 8 8h56c4.417969 0 8-3.582031 8-8v-56h24c73.007813 0 132.800782 78.238281 135.871094 176h-168.277344c-2.257812-23.328125-14.671874-44.476562-33.9375-57.820312-19.269531-13.34375-43.433593-17.527344-66.0625-11.4375zm153.753906-88h-144c-28.566406-.019531-53.679687 18.910157-61.53125 46.375-7.851562 27.464844 3.464844 56.808594 27.722657 71.890625l-4.054688 16.261719c-32.359375-17.324219-48.777343-54.445313-39.824219-90.042969 8.953126-35.597656 40.980469-60.53125 77.6875-60.484375h144c100 0 181.550782 142.816407 183.945313 320h-16c-2.34375-165.601562-78.34375-304-167.945313-304zm224 336h-96v-16h96zm0 0"/><path d="m176.101562 280.050781h88c4.417969 0 8-3.582031 8-8s-3.582031-8-8-8h-88c-4.417968 0-8 3.582031-8 8s3.582032 8 8 8zm0 0"/><path d="m296.101562 280.050781h16c4.417969 0 8-3.582031 8-8s-3.582031-8-8-8h-16c-4.417968 0-8 3.582031-8 8s3.582032 8 8 8zm0 0"/><path d="m376.101562 400.050781c0-4.417969-3.582031-8-8-8h-16c-4.417968 0-8 3.582031-8 8s3.582032 8 8 8h16c4.417969 0 8-3.582031 8-8zm0 0"/><path d="m344.101562 416.050781h-16c-4.417968 0-8 3.582031-8 8s3.582032 8 8 8h16c4.417969 0 8-3.582031 8-8s-3.582031-8-8-8zm0 0"/><path d="m424.101562 400.050781c0-4.417969-3.582031-8-8-8h-16c-4.417968 0-8 3.582031-8 8s3.582032 8 8 8h16c4.417969 0 8-3.582031 8-8zm0 0"/><path d="m392.101562 416.050781h-16c-4.417968 0-8 3.582031-8 8s3.582032 8 8 8h16c4.417969 0 8-3.582031 8-8s-3.582031-8-8-8zm0 0"/><path d="m440.101562 416.050781h-16c-4.417968 0-8 3.582031-8 8s3.582032 8 8 8h16c4.417969 0 8-3.582031 8-8s-3.582031-8-8-8zm0 0"/><path d="m472.101562 400.050781c0-4.417969-3.582031-8-8-8h-16c-4.417968 0-8 3.582031-8 8s3.582032 8 8 8h16c4.417969 0 8-3.582031 8-8zm0 0"/><path d="m472.101562 416.050781h-8c-4.417968 0-8 3.582031-8 8s3.582032 8 8 8h8c4.417969 0 8-3.582031 8-8s-3.582031-8-8-8zm0 0"/></svg>