<?xml version="1.0" standalone="no"?>
<!DOCTYPE svg PUBLIC "-//W3C//DTD SVG 20010904//EN"
 "http://www.w3.org/TR/2001/REC-SVG-20010904/DTD/svg10.dtd">
<svg version="1.0" xmlns="http://www.w3.org/2000/svg"
 width="3313.000000pt" height="3313.000000pt" viewBox="0 0 3313.000000 3313.000000"
 preserveAspectRatio="xMidYMid meet">
<metadata>
Created by potrace 1.11, written by Peter Selinger 2001-2013
</metadata>
<g transform="translate(0.000000,3313.000000) scale(0.100000,-0.100000)"
fill="#000000" stroke="none">
<path d="M15657 29924 c-1 -1 -56 -5 -122 -8 -66 -4 -136 -9 -155 -11 -19 -2
-57 -7 -85 -10 -42 -5 -172 -27 -299 -51 -29 -5 -148 -31 -176 -38 -332 -85
-615 -197 -930 -367 -188 -101 -241 -152 -249 -239 -1 -19 -3 -37 -4 -40 0 -3
3 -24 7 -47 15 -83 118 -164 209 -165 45 -1 98 20 217 88 273 154 535 260 850
343 115 30 353 74 465 85 33 4 87 9 120 13 73 8 508 7 550 -1 16 -3 61 -8 100
-12 187 -16 428 -66 650 -135 230 -72 521 -199 703 -308 133 -79 192 -90 277
-51 85 38 127 106 127 203 0 107 -43 154 -233 257 -231 125 -452 221 -688 300
-292 97 -631 163 -961 186 -77 5 -369 12 -373 8z"/>
<path d="M15628 28825 c-2 -2 -48 -6 -103 -10 -55 -4 -106 -8 -115 -10 -8 -1
-40 -6 -70 -10 -62 -8 -66 -9 -175 -31 -44 -9 -114 -25 -155 -36 -41 -11 -88
-23 -105 -27 -32 -8 -147 -47 -180 -61 -11 -4 -47 -18 -80 -31 -100 -37 -301
-136 -327 -161 -53 -51 -72 -100 -69 -176 4 -121 108 -209 238 -203 17 1 76
23 130 50 54 26 109 52 123 56 14 4 30 11 35 15 17 14 246 90 345 115 133 33
311 66 405 73 131 11 474 7 565 -7 47 -7 94 -14 105 -16 20 -2 92 -17 196 -40
156 -34 386 -118 543 -198 70 -35 90 -41 147 -41 53 0 74 5 112 27 116 68 140
228 49 334 -51 59 -377 200 -627 272 -146 42 -333 79 -485 96 -25 3 -63 8 -85
11 -38 6 -412 13 -417 9z"/>
<path d="M15677 27734 c-1 -1 -36 -4 -77 -7 -222 -18 -538 -97 -627 -158 -108
-75 -119 -242 -21 -331 72 -65 145 -73 273 -32 44 14 91 28 105 30 14 3 39 9
55 14 108 34 429 57 549 39 28 -4 74 -10 103 -13 55 -6 246 -54 327 -81 193
-66 363 110 281 291 -30 68 -83 103 -210 142 -201 62 -315 85 -482 98 -69 5
-272 11 -276 8z"/>
<path d="M15623 26625 c-99 -24 -215 -90 -314 -177 -52 -45 -96 -84 -99 -87
-4 -5 -173 -159 -236 -216 -65 -59 -429 -390 -450 -410 -30 -28 -182 -166
-200 -182 -24 -20 -188 -170 -278 -253 -33 -30 -65 -59 -71 -65 -6 -5 -49 -44
-95 -85 -46 -41 -90 -82 -99 -91 -9 -9 -70 -64 -136 -124 -122 -110 -290 -262
-309 -280 -6 -6 -90 -82 -186 -169 -96 -88 -200 -182 -231 -210 -30 -28 -97
-89 -149 -136 -51 -47 -104 -94 -117 -106 -12 -12 -55 -50 -95 -86 -40 -36
-87 -79 -103 -94 -17 -16 -67 -61 -110 -101 -44 -39 -92 -82 -106 -95 -14 -12
-65 -59 -114 -103 -87 -79 -111 -101 -190 -174 -22 -20 -69 -63 -105 -95 -36
-33 -85 -78 -110 -100 -86 -79 -194 -178 -380 -346 -58 -52 -107 -97 -110
-100 -4 -4 -192 -174 -226 -205 -6 -5 -51 -46 -99 -90 -48 -44 -95 -87 -105
-95 -84 -74 -220 -200 -292 -271 -137 -137 -198 -282 -198 -476 -2 -353 297
-647 655 -645 50 1 97 3 105 5 8 2 33 7 55 12 48 10 152 55 199 87 31 22 126
102 195 167 15 14 67 62 116 106 48 44 93 85 99 90 94 86 254 232 262 240 6 5
48 44 94 85 46 41 93 84 104 95 12 11 44 40 71 64 28 25 95 86 149 135 55 50
111 102 125 115 14 13 57 51 94 85 38 33 81 72 96 86 15 14 69 63 121 110 51
47 105 96 119 109 22 20 143 130 215 196 12 11 62 56 111 100 48 44 93 85 99
90 6 6 61 55 121 110 61 54 117 106 126 114 9 9 53 50 99 91 46 41 95 86 109
98 14 13 66 61 116 105 116 107 217 199 231 212 6 5 46 42 88 80 43 39 90 81
105 95 35 32 210 192 225 205 7 6 39 35 71 65 33 30 101 92 150 137 50 44 102
92 116 105 14 12 63 57 109 98 46 41 88 80 94 86 6 5 63 57 126 114 143 130
176 160 204 185 13 11 65 59 117 106 52 48 112 102 134 122 l39 35 31 -25 c16
-14 57 -51 91 -82 33 -31 103 -94 155 -141 52 -47 121 -110 154 -140 32 -30
65 -59 71 -65 7 -5 34 -30 61 -55 27 -25 71 -65 99 -89 27 -25 74 -68 104 -95
30 -28 98 -89 149 -136 52 -47 106 -95 119 -107 14 -13 63 -58 111 -100 47
-43 104 -95 126 -116 22 -22 71 -67 109 -100 39 -34 95 -85 125 -113 31 -28
115 -104 186 -169 72 -65 173 -158 226 -207 53 -49 106 -97 118 -108 12 -10
63 -56 114 -102 118 -107 191 -174 301 -273 49 -44 98 -89 110 -100 12 -11 66
-60 121 -110 55 -49 102 -93 105 -96 3 -3 106 -97 230 -209 124 -112 245 -223
270 -246 25 -24 56 -52 70 -64 14 -12 63 -56 109 -98 93 -85 97 -89 225 -206
49 -44 98 -89 110 -99 12 -10 61 -55 110 -100 49 -45 94 -87 100 -92 6 -6 63
-57 126 -115 63 -57 135 -123 160 -147 181 -169 324 -235 510 -236 526 -1 841
575 554 1013 -44 67 -86 110 -289 294 -66 60 -143 130 -170 155 -28 25 -93 84
-145 131 -52 47 -101 92 -110 100 -9 8 -58 53 -110 100 -52 47 -97 88 -100 91
-3 3 -54 50 -115 105 -60 54 -115 103 -121 109 -6 5 -49 45 -96 88 -47 42 -96
87 -110 100 -13 12 -66 60 -118 107 -51 47 -98 90 -104 95 -6 6 -135 122 -286
260 -151 137 -277 252 -280 255 -3 3 -77 70 -165 150 -88 79 -182 165 -210
191 -27 25 -131 119 -230 209 -177 160 -353 321 -385 350 -9 8 -38 35 -66 59
-27 25 -92 84 -144 132 -52 48 -115 104 -139 125 -24 22 -56 50 -70 64 -15 14
-74 68 -131 120 -58 52 -110 100 -116 105 -6 6 -51 46 -99 90 -49 44 -100 91
-114 104 -14 13 -64 58 -110 100 -46 42 -89 81 -95 86 -17 16 -236 215 -280
255 -21 19 -49 44 -60 55 -12 11 -44 40 -72 65 -27 25 -97 88 -154 141 -183
168 -237 205 -365 248 -73 24 -102 29 -193 29 -59 0 -130 -6 -159 -13z"/>
<path d="M15725 24463 c-28 -24 -84 -76 -126 -114 -41 -37 -84 -76 -96 -86
-18 -16 -189 -172 -254 -233 -24 -23 -147 -133 -189 -170 -10 -8 -64 -58 -121
-110 -56 -52 -130 -120 -163 -150 -33 -30 -88 -80 -121 -111 -33 -30 -105 -95
-160 -144 -55 -49 -102 -91 -105 -94 -3 -3 -75 -69 -160 -146 -85 -77 -162
-147 -170 -155 -27 -25 -201 -184 -224 -203 -22 -19 -69 -62 -166 -151 -30
-28 -97 -89 -149 -136 -52 -47 -99 -90 -105 -95 -6 -6 -60 -55 -121 -110 -60
-54 -117 -106 -126 -114 -9 -9 -34 -32 -55 -51 -22 -19 -111 -101 -199 -181
-88 -80 -172 -156 -188 -169 -15 -13 -51 -45 -80 -72 -28 -27 -123 -112 -209
-191 l-158 -142 1 -2175 c0 -2072 1 -2177 18 -2220 24 -59 98 -117 161 -126
25 -4 1528 -7 3341 -7 l3295 0 48 24 c56 28 102 79 116 129 6 22 10 829 10
2207 l0 2171 -32 27 c-18 15 -53 46 -78 69 -25 22 -87 79 -139 126 -52 47
-104 94 -116 105 -19 19 -52 49 -330 300 -66 60 -140 127 -164 149 -24 23 -49
46 -55 51 -6 6 -58 53 -116 105 -58 52 -110 100 -116 105 -6 6 -48 44 -93 85
-46 41 -95 86 -109 99 -15 13 -52 47 -83 75 -31 28 -76 69 -100 91 -24 22 -71
65 -104 95 -34 30 -103 93 -155 140 -51 47 -105 96 -120 110 -15 14 -64 59
-111 100 -46 41 -88 80 -94 86 -5 6 -64 60 -130 120 -66 59 -137 124 -159 144
-21 19 -51 46 -66 60 -15 14 -43 39 -61 55 -64 58 -384 349 -395 359 -6 6 -29
27 -50 46 -136 123 -470 425 -474 430 -38 41 -43 41 -95 -7z m126 -2863 c47
-13 90 -52 120 -111 l22 -44 1 -695 c0 -544 -3 -703 -13 -734 -43 -127 -205
-184 -318 -113 -49 31 -68 54 -89 102 -15 36 -17 108 -17 726 0 768 -2 751 67
819 62 62 128 76 227 50z m-650 -394 c42 -17 107 -79 121 -115 17 -40 18 -132
1 -171 -20 -49 -47 -75 -143 -138 -97 -64 -247 -210 -304 -296 -94 -142 -156
-299 -182 -462 -10 -62 -11 -243 -2 -303 37 -241 145 -456 314 -625 170 -170
365 -267 629 -312 47 -8 212 -9 270 -1 243 33 450 130 622 294 220 209 344
504 338 799 -4 177 -31 298 -98 445 -80 176 -229 349 -399 463 -125 83 -159
135 -153 233 3 55 15 82 60 131 41 46 90 68 153 71 44 2 63 -3 120 -34 126
-69 315 -229 407 -345 301 -379 414 -844 314 -1290 -41 -182 -57 -225 -140
-388 -199 -388 -558 -673 -979 -775 -157 -39 -161 -39 -350 -43 -137 -2 -199
1 -283 16 -113 20 -131 25 -267 72 -471 166 -845 587 -961 1083 -31 134 -42
229 -41 360 2 405 162 785 452 1075 89 90 234 201 325 249 47 25 126 28 176 7z"/>
<path d="M3440 13670 c-4 -3 -8 -294 -8 -647 l-1 -643 785 0 784 0 0 645 c0
509 -3 645 -12 646 -62 4 -1542 3 -1548 -1z"/>
<path d="M6405 13670 c-5 -10 -2 -7880 4 -7881 35 -4 1601 0 1607 4 6 3 9
1074 9 2624 0 1440 1 2626 3 2636 3 9 7 17 11 17 3 0 44 -62 90 -138 47 -75
104 -166 127 -202 35 -55 524 -841 573 -921 85 -141 165 -269 371 -599 84
-135 158 -254 164 -265 6 -11 20 -34 31 -50 11 -17 25 -39 32 -50 6 -11 38
-63 71 -115 32 -52 129 -207 214 -345 86 -137 247 -396 358 -575 112 -179 221
-354 242 -390 37 -62 124 -201 187 -300 31 -50 426 -684 444 -714 12 -19 150
-243 174 -282 6 -10 56 -90 109 -176 96 -156 98 -158 133 -159 45 -1 1660 -1
1684 0 16 1 17 196 17 3941 l0 3940 -22 1 c-142 4 -1590 0 -1595 -5 -4 -4 -7
-1193 -8 -2643 0 -1748 -3 -2637 -10 -2640 -5 -1 -37 41 -69 95 -33 53 -79
126 -101 162 -23 36 -194 310 -380 610 -186 300 -348 561 -360 580 -13 19 -99
157 -191 305 -92 149 -240 387 -329 530 -89 143 -233 375 -320 515 -87 140
-177 284 -200 320 -23 36 -50 79 -59 95 -9 17 -29 49 -44 73 -48 75 -407 651
-417 669 -5 10 -93 151 -194 313 -101 162 -200 322 -221 355 -20 33 -51 83
-69 110 -97 155 -208 334 -271 438 l-72 117 -47 1 c-252 3 -1674 3 -1676 -1z"/>
<path d="M27103 12358 c0 -466 -3 -851 -6 -855 -4 -3 -217 -6 -475 -6 l-468 0
1 -519 c0 -381 3 -521 12 -526 6 -4 219 -7 472 -6 l461 1 1 -21 c0 -12 2 -811
3 -1776 2 -965 6 -1768 9 -1785 3 -16 8 -48 11 -70 43 -337 209 -628 446 -781
150 -96 385 -190 550 -219 17 -3 61 -12 98 -19 37 -8 94 -17 127 -21 33 -4 67
-8 75 -10 101 -25 987 -25 1150 0 14 2 52 6 85 9 33 4 78 9 100 13 22 4 45 7
50 7 7 1 11 214 13 614 l2 614 -27 -6 c-122 -23 -278 -35 -473 -36 -188 -1
-320 21 -425 71 -118 55 -164 131 -211 349 -5 19 -9 717 -11 1551 l-4 1516
563 1 c310 0 569 1 576 1 9 1 12 113 12 525 l0 523 -552 1 c-304 1 -563 1
-575 2 l-23 0 -2 853 -3 852 -781 1 -781 1 0 -849z"/>
<path d="M17028 11656 c-1 -2 -64 -6 -138 -10 -158 -7 -198 -11 -345 -36 -199
-34 -296 -57 -458 -111 -479 -159 -863 -408 -1192 -773 -68 -75 -207 -266
-285 -391 -166 -266 -345 -705 -385 -945 -3 -19 -10 -51 -15 -70 -5 -19 -12
-51 -15 -70 -3 -19 -7 -46 -10 -60 -4 -24 -11 -71 -20 -142 -25 -193 -25 -666
-1 -833 3 -16 7 -50 10 -75 26 -249 115 -585 218 -830 47 -111 139 -293 174
-345 13 -20 24 -38 24 -41 0 -13 156 -236 224 -319 77 -94 301 -310 396 -381
285 -215 610 -370 990 -474 122 -33 308 -70 431 -85 30 -3 68 -8 84 -10 193
-24 594 -24 746 0 13 2 51 6 84 10 32 4 68 9 78 11 11 2 39 6 64 9 25 2 62 9
83 15 20 5 61 14 91 20 178 33 503 156 674 254 492 283 839 693 1084 1285 46
110 70 177 71 193 0 4 9 28 20 53 10 24 16 46 12 48 -6 3 -1330 1 -1367 -2 -8
0 -15 -6 -15 -12 0 -16 -50 -119 -88 -179 -50 -80 -193 -216 -300 -287 -259
-174 -532 -255 -862 -257 -83 0 -282 12 -302 19 -7 2 -26 6 -43 8 -120 18
-242 59 -383 129 -283 140 -500 442 -591 823 -11 44 -22 98 -25 120 -4 22 -9
54 -12 70 -7 37 -11 75 -19 188 l-6 87 43 0 c24 1 949 1 2056 1 1822 1 2014 2
2019 16 15 38 4 677 -12 725 -2 7 -6 40 -9 73 -3 33 -8 70 -10 81 -2 12 -7 39
-10 60 -10 64 -25 147 -31 174 -2 14 -7 34 -9 45 -88 425 -311 906 -576 1239
-140 176 -259 295 -435 433 -149 116 -428 280 -565 332 -162 61 -205 76 -275
96 -149 44 -301 75 -480 99 -22 3 -112 8 -200 11 -88 4 -165 8 -172 10 -6 2
-13 2 -15 1z m179 -1197 c107 -12 275 -55 364 -93 157 -68 293 -179 396 -322
105 -146 222 -430 259 -629 3 -16 12 -57 19 -89 8 -33 12 -62 10 -65 -2 -5
-2510 -7 -2538 -2 -16 2 17 198 55 321 44 146 70 208 134 317 171 292 425 470
770 542 55 11 117 22 139 24 79 6 321 4 392 -4z"/>
<path d="M23077 11654 c-1 -1 -92 -4 -202 -8 -110 -3 -213 -8 -230 -10 -16 -2
-59 -7 -95 -11 -123 -12 -145 -15 -262 -35 -373 -64 -670 -170 -932 -332 -415
-257 -670 -677 -731 -1203 -12 -105 -13 -393 -1 -445 3 -13 8 -42 11 -63 22
-145 108 -344 203 -472 100 -134 211 -235 372 -339 167 -108 330 -182 620
-281 202 -69 578 -163 910 -229 14 -2 77 -17 140 -31 63 -15 124 -29 135 -31
56 -11 404 -107 498 -138 331 -109 573 -267 643 -421 46 -100 54 -242 19 -369
-77 -286 -368 -485 -790 -541 -94 -13 -310 -12 -425 2 -178 21 -303 56 -452
127 -63 30 -163 89 -178 106 -3 3 -21 17 -40 31 -183 137 -295 349 -316 597
l-7 82 -48 1 c-27 0 -346 0 -709 0 -363 0 -676 0 -696 0 l-36 -1 6 -97 c8
-116 21 -212 42 -308 9 -38 17 -78 19 -88 2 -9 20 -65 40 -124 179 -529 596
-935 1200 -1168 150 -58 354 -117 478 -139 15 -3 35 -7 45 -10 22 -6 208 -33
287 -41 33 -3 74 -8 91 -10 216 -29 788 -24 1044 10 153 20 161 21 257 39 507
92 979 319 1278 612 213 209 366 479 440 774 69 278 80 639 25 885 -37 170
-108 328 -206 460 -173 232 -462 432 -824 570 -228 87 -674 210 -1015 280 -11
3 -88 18 -170 35 -725 148 -1057 271 -1219 451 -86 96 -117 183 -112 322 7
254 150 397 475 474 95 23 130 26 346 29 132 1 265 -1 295 -6 30 -5 75 -11 99
-14 64 -8 166 -35 240 -63 174 -65 283 -153 367 -294 42 -70 90 -199 98 -260
2 -19 7 -55 11 -81 l7 -48 745 0 745 0 -6 56 c-15 141 -44 285 -82 408 -31
101 -102 273 -125 308 -11 14 -19 29 -19 33 0 12 -79 134 -129 200 -259 340
-654 581 -1156 706 -132 32 -128 32 -270 54 -119 20 -143 23 -215 31 -30 3
-68 7 -85 9 -16 2 -104 7 -195 10 -221 9 -251 10 -253 9z"/>
<path d="M3436 11491 c-2 -3 -4 -1288 -4 -2854 l-1 -2847 22 -1 c28 -1 1518
-1 1535 0 9 1 12 579 12 2855 l0 2854 -780 0 c-429 0 -782 -3 -784 -7z"/>
<path d="M9258 3339 c-107 -21 -150 -35 -208 -67 -167 -92 -250 -227 -255
-417 -5 -194 62 -322 228 -432 77 -50 142 -78 367 -155 217 -74 279 -123 267
-209 -7 -50 -17 -62 -75 -91 -92 -44 -269 -23 -340 40 -36 32 -71 104 -72 145
0 23 -3 27 -22 22 -13 -3 -102 -21 -198 -41 -96 -19 -182 -37 -191 -40 -33 -9
-4 -145 48 -227 91 -144 281 -245 508 -272 62 -7 231 -7 265 0 13 2 41 7 62
10 57 9 144 41 213 80 161 90 250 256 241 455 -11 249 -145 386 -486 495 -263
84 -325 113 -359 169 -40 64 -17 136 55 172 54 26 202 26 257 0 42 -21 87 -87
87 -129 0 -14 4 -28 8 -31 5 -3 48 4 98 15 49 11 103 22 119 25 17 2 37 7 45
9 8 2 31 7 50 10 19 3 52 10 73 16 l39 10 -6 52 c-8 66 -33 142 -52 157 -7 7
-14 17 -14 23 0 22 -104 107 -174 141 -107 54 -209 77 -361 80 -94 2 -154 -2
-217 -15z"/>
<path d="M19895 3345 c-216 -32 -400 -136 -523 -295 -65 -83 -131 -254 -151
-385 -13 -89 -14 -279 -1 -365 67 -448 367 -710 812 -712 145 0 293 28 405 77
105 47 228 149 301 251 64 89 129 254 149 384 10 59 10 323 1 380 -61 367
-288 603 -636 661 -95 16 -263 18 -357 4z m283 -359 c41 -9 123 -60 148 -91
13 -16 29 -36 34 -42 28 -34 66 -148 78 -232 12 -87 6 -264 -13 -346 -39 -180
-122 -277 -266 -314 -188 -48 -354 20 -434 179 -80 157 -79 514 1 668 39 74
124 154 180 167 10 3 35 9 54 14 34 10 172 8 218 -3z"/>
<path d="M10419 3322 l-57 -3 0 -849 0 -848 210 0 209 0 -2 457 c-2 251 -5
491 -8 534 -4 44 -3 81 1 84 5 2 8 -2 8 -9 0 -12 21 -85 65 -218 20 -63 239
-690 282 -808 l16 -43 178 2 178 1 31 86 c35 96 335 996 343 1027 3 11 2 -43
-1 -120 -3 -77 -6 -331 -7 -565 l0 -425 208 -2 207 -2 1 42 c3 275 0 1649 -4
1653 -9 9 -558 7 -567 -2 -4 -5 -56 -157 -115 -339 -60 -181 -130 -397 -157
-480 -28 -82 -65 -202 -83 -265 -21 -73 -34 -107 -38 -95 -30 108 -73 241
-218 674 -93 278 -171 506 -173 509 -5 5 -426 8 -507 4z"/>
<path d="M13123 3322 c-29 -2 -43 -8 -43 -17 0 -8 -6 -29 -14 -47 -18 -39
-187 -489 -190 -503 -1 -5 -15 -44 -30 -85 -77 -204 -108 -286 -156 -415 -28
-77 -55 -149 -60 -160 -22 -52 -170 -454 -170 -463 0 -6 78 -9 202 -8 l203 1
50 140 50 140 309 0 309 0 47 -115 c26 -63 53 -127 60 -142 l13 -27 213 0
c118 0 214 4 214 8 0 4 -15 43 -34 87 -18 43 -68 165 -111 269 -43 105 -106
258 -140 340 -34 83 -104 251 -155 375 -90 218 -158 384 -223 540 -17 41 -32
76 -33 78 -3 5 -259 8 -311 4z m152 -634 c21 -65 110 -298 136 -355 20 -46 23
-63 12 -64 -12 -1 -274 -1 -304 0 l-27 1 24 58 c13 31 49 137 81 234 32 98 59
178 60 178 1 0 9 -24 18 -52z"/>
<path d="M14291 3318 c-17 -6 -18 -49 -17 -850 l1 -843 213 -2 c161 -2 212 0
213 10 1 6 3 136 4 287 1 151 3 282 4 290 2 23 132 16 186 -10 48 -23 75 -71
140 -242 75 -201 172 -302 326 -343 50 -14 198 -18 216 -7 9 6 28 81 57 222 3
14 8 36 11 50 18 81 19 77 -30 78 -90 2 -145 50 -184 163 -34 100 -73 168
-117 209 -24 22 -44 42 -44 45 0 2 15 11 33 20 46 21 129 96 170 153 127 174
117 461 -21 606 -71 74 -196 136 -307 151 -122 17 -815 28 -854 13z m739 -376
c19 -7 43 -21 53 -30 45 -40 60 -141 32 -209 -20 -49 -41 -71 -90 -96 -34 -17
-59 -20 -180 -21 l-140 -1 -1 180 c0 99 2 184 4 188 7 15 283 5 322 -11z"/>
<path d="M15770 3320 l-35 -5 0 -180 0 -180 252 0 c246 0 253 -1 254 -20 0
-11 1 -311 1 -666 l1 -647 212 0 213 -1 3 27 c2 15 4 314 3 665 0 573 1 637
15 638 9 0 123 0 254 1 l237 0 0 184 c0 168 -1 184 -17 185 -108 3 -1367 3
-1393 -1z"/>
<path d="M17389 3315 c-1 -5 -2 -389 -3 -852 l-1 -841 216 0 216 -1 1 327 c0
180 1 332 1 337 1 7 123 10 346 10 l345 0 0 -336 0 -336 215 -1 215 -1 1 22
c0 12 2 394 2 849 1 546 -1 828 -8 829 -11 1 -311 0 -382 0 l-43 -1 0 -325 c0
-253 -3 -325 -12 -326 -7 0 -163 -1 -345 -2 l-333 -2 -1 25 c0 14 -1 162 -2
329 l-2 303 -213 2 c-135 1 -212 -3 -213 -9z"/>
<path d="M21171 3310 c-5 -11 -7 -1646 -2 -1682 1 -3 94 -5 209 -5 l207 2 -1
400 c0 220 -3 465 -6 545 -5 113 -4 137 5 110 53 -169 134 -413 181 -545 75
-209 133 -375 159 -452 l21 -63 180 3 180 2 69 200 c38 110 71 207 74 215 3 8
7 20 9 25 2 6 30 91 64 190 33 99 83 251 111 338 28 86 53 157 56 157 2 0 2
-12 -1 -27 -13 -63 -24 -754 -17 -1069 l1 -32 208 2 207 1 0 848 1 847 -36 1
c-54 0 -503 1 -522 0 -13 -1 -38 -69 -113 -298 -54 -164 -124 -379 -157 -478
-32 -99 -75 -234 -94 -299 -19 -66 -36 -121 -37 -122 -1 -2 -11 27 -21 64 -15
57 -281 862 -305 925 -5 12 -22 64 -37 114 l-29 92 -40 1 c-372 7 -517 4 -524
-10z"/>
<path d="M23452 3319 c-16 -6 -17 -67 -17 -850 l0 -844 570 0 570 0 0 180 1
180 -354 5 -354 5 0 141 c0 78 2 146 5 151 3 4 127 8 276 8 149 0 272 2 272 5
1 3 2 85 3 183 l1 177 -40 1 c-22 0 -147 1 -277 1 l-238 0 -1 49 c0 27 -1 78
-1 114 0 36 1 80 1 98 l1 32 345 0 c226 0 345 3 345 10 3 70 0 348 -4 352 -7
7 -1085 9 -1104 2z"/>
</g>
</svg>
