
		<svg xmlns="http://www.w3.org/2000/svg" xmlns:xlink="http://www.w3.org/1999/xlink" version="1.1" width="2953.125" height="3312.5">
			
			<g transform="scale(15.625) translate(10, 10)">
				<defs id="SvgjsDefs2555"/><g id="SvgjsG2556" featurekey="root" fill="#000"/><g id="SvgjsG2557" featurekey="symbol1" fill="#000" transform="matrix(1.398399125756685,0,0,1.398399125756685,34.25122730897742,7.218631200891924)"><path d="M28.539,12.634a1,1,0,0,0,.7,1.873,7.847,7.847,0,0,1,5.518,0,1,1,0,0,0,.7-1.873A9.866,9.866,0,0,0,28.539,12.634Z"/><path d="M37.979,10.47a1,1,0,0,0,.461-1.887,14,14,0,0,0-12.88,0,1,1,0,1,0,.92,1.775,12,12,0,0,1,11.04,0A1,1,0,0,0,37.979,10.47Z"/><path d="M23.729,6.315a15.892,15.892,0,0,1,16.542,0A1,1,0,0,0,41.309,4.6a17.9,17.9,0,0,0-18.618,0,1,1,0,0,0,1.038,1.711Z"/><path d="M16,41.31v19.7a1,1,0,0,0,1,1H47a1,1,0,0,0,1-1V41.31L32,26.766Zm18.133,1.008a1,1,0,0,1,1.366-.367,7,7,0,1,1-7,0,1,1,0,1,1,1,1.732,5,5,0,1,0,5,0A1,1,0,0,1,34.133,42.318ZM33,41.008v6a1,1,0,1,1-2,0v-6a1,1,0,0,1,2,0Z"/><path d="M56.018,37.788l-22-20a3,3,0,0,0-4.036,0l-22,20a3,3,0,1,0,4.036,4.439L32,24.062,51.982,42.227a3,3,0,1,0,4.036-4.439Z"/></g><g id="SvgjsG2558" featurekey="text1" fill="#000" transform="matrix(3.5330544496967913,0,0,3.5330544496967913,-4.098342622546952,79.65871317490316)"><path d="M4 9.72 l0 2.34 l-2.84 0 l0 -2.34 l2.84 0 z M4 13.66 l0 10.34 l-2.84 0 l0 -10.34 l2.84 0 z M9.66 9.72 l5.96 9.58 l0.04 0 l0 -9.58 l2.94 0 l0 14.28 l-3.14 0 l-5.94 -9.56 l-0.04 0 l0 9.56 l-2.94 0 l0 -14.28 l3.12 0 z M25.84 13.38 q1.46 0 2.6 0.68 t1.79 1.97 t0.65 2.97 q0 0.16 -0.02 0.52 l-7.46 0 q0.04 1.24 0.65 1.93 t1.87 0.69 q0.78 0 1.43 -0.39 t0.83 -0.95 l2.5 0 q-1.1 3.48 -4.84 3.48 q-1.42 -0.02 -2.63 -0.62 t-1.93 -1.87 t-0.72 -2.95 q0 -1.58 0.73 -2.88 t1.94 -1.94 t2.61 -0.64 z M28.02 17.72 q-0.2 -1.16 -0.74 -1.68 t-1.54 -0.52 q-1.04 0 -1.64 0.59 t-0.7 1.61 l4.62 0 z M36.78 13.38 q2.08 0 3.25 0.84 t1.31 2.46 l-2.7 0 q-0.06 -0.74 -0.54 -1.07 t-1.4 -0.33 q-0.8 0 -1.19 0.24 t-0.39 0.72 q0 0.36 0.26 0.6 t0.79 0.42 t1.17 0.3 q1.94 0.38 2.74 0.78 t1.17 0.96 t0.37 1.38 q0 1.74 -1.27 2.67 t-3.45 0.93 q-2.28 0 -3.55 -0.98 t-1.31 -2.66 l2.7 0 q0 0.8 0.62 1.27 t1.56 0.47 q0.8 0 1.33 -0.35 t0.53 -0.97 q0 -0.4 -0.33 -0.66 t-0.93 -0.46 t-1.86 -0.46 q-1 -0.2 -1.78 -0.54 t-1.19 -0.89 t-0.41 -1.35 q0 -1.02 0.49 -1.78 t1.5 -1.15 t2.51 -0.39 z M46.88 10.56 l0 3.1 l2.08 0 l0 1.9 l-2.08 0 l0 5.12 q0 0.72 0.24 0.96 t0.96 0.24 q0.52 0 0.88 -0.08 l0 2.22 q-0.6 0.1 -1.68 0.1 q-1.64 0 -2.44 -0.56 t-0.8 -1.94 l0 -6.06 l-1.72 0 l0 -1.9 l1.72 0 l0 -3.1 l2.84 0 z"/></g><g id="SvgjsG2559" featurekey="text3" fill="#000" transform="matrix(0.8224331236617382,0,0,0.8224331236617382,33.56012468200317,174.65418508836538)"><path d="M0.54 16.34 l3.3 -0.68 c0.02 1.4 1.1 1.84 2.2 1.84 c1.04 0 1.64 -0.38 1.64 -1 c0 -2.1 -6.78 -1.14 -6.78 -5.94 c0 -2.64 2.04 -4.06 5.1 -4.06 c3.08 0 5.02 1.46 4.92 3.58 l-3.3 0.68 c-0.02 -0.54 -0.14 -1.48 -1.7 -1.48 c-1.08 0 -1.62 0.44 -1.62 1.04 c0 2.18 6.78 1.04 6.78 5.82 c0 2.4 -1.7 4.14 -5.08 4.14 c-3.6 0 -5.58 -1.96 -5.46 -3.94 z M13.12 20 l0 -13.22 l4.4 0 l2.54 7.56 c0.1 0.32 0.32 1.04 0.54 1.84 c0.22 -0.82 0.42 -1.54 0.54 -1.88 l2.46 -7.52 l4.46 0 l0 13.22 l-3.26 0 l0 -5.06 c0 -0.98 0.06 -2.46 0.16 -3.86 c-0.44 1.36 -0.88 2.8 -1.2 3.72 l-1.78 5.2 l-2.8 0 l-1.86 -5.28 c-0.32 -0.9 -0.72 -2.16 -1.08 -3.38 c0.08 1.28 0.14 2.6 0.14 3.48 l0 5.18 l-3.26 0 z M29.400000000000002 20 l4.94 -13.22 l2.68 0 l5.46 13.22 l-3.4 0 l-0.9 -2.22 l-4.8 0 l-0.78 2.22 l-3.2 0 z M35.1 13 l-0.72 1.98 l2.66 0 l-0.8 -2.02 c-0.14 -0.34 -0.38 -1.02 -0.6 -1.72 c-0.22 0.74 -0.42 1.42 -0.54 1.76 z M43.56 20 l0 -13.22 l5.08 0 c3.66 0 4.96 1.58 4.96 3.7 c0 1.98 -1.12 3.1 -2.34 3.68 c0.52 0.28 0.9 0.8 1.24 1.74 c0.28 0.8 0.42 1.56 1.86 1.5 l-0.58 2.72 c-3.16 0.4 -3.9 -1.64 -4.44 -3.1 c-0.56 -1.52 -0.78 -1.68 -1.9 -1.68 l-0.52 0 l0 4.66 l-3.36 0 z M48.56 9.6 l-1.64 0 l0 2.92 l1.64 0 c1.22 0 1.68 -0.76 1.68 -1.54 c0 -0.98 -0.56 -1.38 -1.68 -1.38 z M54.940000000000005 9.66 l0 -2.88 l11.24 0 l0 2.88 l-3.94 0 l0 10.34 l-3.36 0 l0 -10.34 l-3.94 0 z M67.78 20 l0 -13.22 l3.36 0 l0 5.1 l5.4 0 l0 -5.1 l3.36 0 l0 13.22 l-3.36 0 l0 -5.22 l-5.4 0 l0 5.22 l-3.36 0 z M88.48 20.28 c-4.3 0 -6.52 -2.92 -6.52 -6.92 c0 -4.1 2.32 -6.86 6.64 -6.86 c4.08 0 6.54 2.46 6.54 6.7 c0 4.1 -2.32 7.08 -6.66 7.08 z M88.54 17.5 c1.88 0 3.06 -1.24 3.06 -4.16 c0 -2.88 -1.14 -4.06 -3.02 -4.06 c-1.94 0 -3.08 1.26 -3.08 4.1 c0 2.88 1.16 4.12 3.04 4.12 z M97.2 20 l0 -13.22 l4.4 0 l2.54 7.56 c0.1 0.32 0.32 1.04 0.54 1.84 c0.22 -0.82 0.42 -1.54 0.54 -1.88 l2.46 -7.52 l4.46 0 l0 13.22 l-3.26 0 l0 -5.06 c0 -0.98 0.06 -2.46 0.16 -3.86 c-0.44 1.36 -0.88 2.8 -1.2 3.72 l-1.78 5.2 l-2.8 0 l-1.86 -5.28 c-0.32 -0.9 -0.72 -2.16 -1.08 -3.38 c0.08 1.28 0.14 2.6 0.14 3.48 l0 5.18 l-3.26 0 z M114.86 20 l0 -13.22 l8.76 0 l0 2.86 l-5.4 0 l0 2.28 l4.34 0 l0 2.86 l-4.34 0 l0 2.36 l5.52 0 l0 2.86 l-8.88 0 z"/></g>
			</g>
		</svg>
	