<svg height="512pt" viewBox="0 0 512 512" width="512pt" xmlns="http://www.w3.org/2000/svg"><path d="m436 392c-19.554688 0-36.226562 12.542969-42.421875 30h-32.578125v-62h60v-90h-30v-135c0-74.4375-60.5625-135-135-135s-135 60.5625-135 135v135h-30v90h60v62h-32.578125c-6.195313-17.457031-22.867187-30-42.421875-30-24.8125 0-45 20.1875-45 45s20.1875 45 45 45c19.554688 0 36.226562-12.542969 42.421875-30h62.578125v-92h60v64.578125c-17.460938 6.195313-30 22.867187-30 42.421875 0 24.8125 20.1875 45 45 45s45-20.1875 45-45c0-19.554688-12.539062-36.226562-30-42.421875v-64.578125h60v92h62.578125c6.195313 17.457031 22.867187 30 42.421875 30 24.8125 0 45-20.1875 45-45s-20.1875-45-45-45zm-360 60c-8.269531 0-15-6.730469-15-15s6.730469-15 15-15 15 6.730469 15 15-6.730469 15-15 15zm180 30c-8.269531 0-15-6.730469-15-15s6.730469-15 15-15 15 6.730469 15 15-6.730469 15-15 15zm-105-347c0-57.898438 47.101562-105 105-105s105 47.101562 105 105v135h-90v-62.578125c4.695312 1.664063 9.742188 2.578125 15 2.578125h45v-90h-45c-11.515625 0-22.03125 4.355469-30 11.496094-7.96875-7.140625-18.484375-11.496094-30-11.496094h-45v90h45c5.257812 0 10.304688-.914062 15-2.578125v62.578125h-90zm120 30c0-8.269531 6.730469-15 15-15h15v30h-15c-8.269531 0-15-6.730469-15-15zm-30 0c0 8.269531-6.730469 15-15 15h-15v-30h15c8.269531 0 15 6.730469 15 15zm-120 135h270v30h-270zm315 152c-8.269531 0-15-6.730469-15-15s6.730469-15 15-15 15 6.730469 15 15-6.730469 15-15 15zm0 0"/><path d="m0 120h60v30h-60zm0 0"/><path d="m452 120h60v30h-60zm0 0"/><path d="m72.9375 203.816406 12.675781 27.191406-54.375 25.355469-12.679687-27.191406zm0 0"/><path d="m480.773438 13.628906 12.675781 27.191406-54.375 25.355469-12.679688-27.191406zm0 0"/><path d="m31.230469 13.636719 54.378906 25.355469-12.679687 27.191406-54.375-25.355469zm0 0"/><path d="m480.769531 256.371094-54.378906-25.355469 12.679687-27.1875 54.375 25.355469zm0 0"/></svg>