<svg viewBox="-24 1 511 511.99998" xmlns="http://www.w3.org/2000/svg"><path d="m376.71875 224.410156v15.09375h72.601562v24.976563h-161.230468v-24.976563h64.585937v-15.09375h-79.679687v287.589844h103.722656v-15.09375h-88.628906v-24.980469h161.230468v24.980469h-48.554687v15.09375h63.648437v-287.589844zm-88.628906 232.421875v-177.257812h161.230468v177.257812zm0 0"/><path d="m360.691406 55.167969c44.449219 0 80.613282 36.164062 80.613282 80.613281h15.09375c0-52.773438-42.933594-95.707031-95.707032-95.707031-52.773437 0-95.707031 42.933593-95.707031 95.707031h15.09375c0-44.449219 36.160156-80.613281 80.613281-80.613281zm0 0"/><path d="m408.3125 135.78125c0-26.257812-21.363281-47.621094-47.621094-47.621094-26.257812 0-47.621094 21.363282-47.621094 47.621094h15.09375c0-17.933594 14.59375-32.527344 32.527344-32.527344s32.523438 14.59375 32.523438 32.527344zm0 0"/><path d="m360.691406 136.25c-13 0-23.578125 10.574219-23.578125 23.574219s10.578125 23.578125 23.578125 23.578125 23.578125-10.578125 23.578125-23.578125-10.578125-23.574219-23.578125-23.574219zm0 32.058594c-4.675781 0-8.484375-3.804688-8.484375-8.484375 0-4.675781 3.804688-8.484375 8.484375-8.484375 4.675782 0 8.480469 3.808594 8.480469 8.484375 0 4.679687-3.804687 8.484375-8.480469 8.484375zm0 0"/><path d="m206.101562 132.09375c12.304688 17.570312 18.808594 38.242188 18.808594 59.789062 0 57.707032-46.949218 104.65625-104.65625 104.65625-24.585937 0-48.480468-8.699218-67.277344-24.496093l-9.710937 11.558593c21.511719 18.078126 48.855469 28.03125 76.988281 28.03125 66.03125 0 119.75-53.71875 119.75-119.75 0-24.660156-7.445312-48.328124-21.539062-68.449218zm0 0"/><path d="m82.875 94.261719 4.851562-1.855469v-45.253906h65.050782v45.253906l4.855468 1.855469c13.40625 5.125 25.4375 12.820312 35.753907 22.878906l10.535156-10.808594c-10.539063-10.277343-22.648437-18.398437-36.046875-24.195312v-50.078125h-16.03125v-16.964844h24.511719v-15.09375h-112.207031v15.09375h24.511718v16.964844h-16.027344v50.078125c-20.316406 8.789062-37.703124 22.941406-50.503906 41.171875-14.148437 20.148437-21.628906 43.859375-21.628906 68.574218 0 27.164063 8.875 52.78125 25.664062 74.074219l11.851563-9.34375c-14.667969-18.605469-22.421875-40.988281-22.421875-64.730469 0-43.011718 27.039062-82.242187 67.28125-97.621093zm53.875-79.167969v16.964844h-32.992188v-16.964844zm0 0"/><path d="m104.222656 72.132812h32.058594v15.09375h-32.058594zm0 0"/><path d="m118.710938 235.839844 30.898437-51.503906h-25.160156l18.582031-37.164063-13.5-6.753906-29.503906 59.011719h22.921875l-17.183594 28.644531zm0 0"/><path d="m120.253906 127.296875v-15.09375c-43.9375 0-79.679687 35.746094-79.679687 79.679687h15.09375c0-35.613281 28.972656-64.585937 64.585937-64.585937zm0 0"/><path d="m199.929688 191.882812h-15.09375c0 35.613282-28.972657 64.585938-64.582032 64.585938v15.09375c43.933594 0 79.675782-35.746094 79.675782-79.679688zm0 0"/><path d="m410.167969 331.109375-11.246094 10.066406c6.65625 7.4375 10.324219 17.039063 10.324219 27.027344 0 22.355469-18.1875 40.539063-40.539063 40.539063-22.355469 0-40.542969-18.183594-40.542969-40.539063 0-9.988281 3.667969-19.589844 10.324219-27.027344l-11.25-10.066406c-9.136719 10.210937-14.167969 23.382813-14.167969 37.09375 0 30.675781 24.957032 55.636719 55.636719 55.636719 30.675781 0 55.632813-24.960938 55.632813-55.636719 0-13.710937-5.03125-26.882813-14.171875-37.09375zm0 0"/><path d="m361.15625 312.101562h15.09375v64.117188h-15.09375zm0 0"/></svg>